# xmcd CD database file
#
# Track frame offsets:
#	150
#	17308
#	31438
#	48417
#	64335
#
# Disc length: 1087 seconds
#
# Revision: 0
# Processed by: cddbd v1.5.2PL0 Copyright (c) Steve Scherf et al.
# Submitted via: CDex 1.51
#
DISCID=38043d05
DTITLE=Belle Star - The Burning Of Atlanta
DYEAR=2012
DGENRE=Country
TTITLE0=This Must Be The Place (Naive Melody)
TTITLE1=Little White Lies
TTITLE2=Summerlea
TTITLE3=Jolene
TTITLE4=Burning Of Atlanta
EXTD=YEAR: 2012
EXTT0=
EXTT1=
EXTT2=
EXTT3=
EXTT4=
PLAYORDER=
